<?xml version="1.0" encoding="iso-8859-1"?>
<!-- Generator: Adobe Illustrator 19.0.0, SVG Export Plug-In . SVG Version: 6.00 Build 0)  -->
<svg version="1.1" id="Layer_1" xmlns="http://www.w3.org/2000/svg" xmlns:xlink="http://www.w3.org/1999/xlink" x="0px" y="0px"
	 viewBox="0 0 512 512" style="enable-background:new 0 0 512 512;" xml:space="preserve">
<g>
	<g>
		<path d="M417.231,40.761c-7.415-8.164-18.413-12.316-32.711-12.316c-13.682,0-32.247,7.775-42.989,44.923l-22.737,83.475
			c-6.713-7.623-15.635-13.17-25.856-14.45c-1.479-0.18-2.987-0.275-4.532-0.275c-1.688,0-3.328,0.133-4.94,0.36
			c-0.247,0.038-0.484,0.095-0.73,0.142c-1.451,0.228-2.863,0.54-4.238,0.939c-0.038,0.009-0.085,0.028-0.123,0.038
			c-9.434,2.75-17.313,9.197-22.888,17.38c-7.67-10.667-19.428-18.754-33.517-18.754c-9.937,0-19.314,4.248-26.69,11.416
			l-13.966-97.839c-1.356-9.453-3.233-17.152-5.926-24.206C172.4,23.78,163.317,0,138.001,0c-10.79,0-21.362,4.94-29.762,13.89
			c-9.254,9.851-14.317,23.106-13.53,35.565l18.46,238.611c-25.316,12.724-27.913,30.113-27.961,71.111
			c-0.047,0.37-0.066,0.74-0.066,1.119c0,40.751,28.207,70.694,38.315,80.118v33.659c0,20.916,16.82,37.926,37.499,37.926h171.425
			c20.594,0,37.452-16.943,37.594-37.822v-34.873c28.625-38.315,28.615-42.742,28.473-117.134l-0.028-18.185l28.065-227.205
			C428.002,61.326,424.892,49.209,417.231,40.761z M233.29,277.845c-8.05,16.981-30.189,40.789-65.802,70.751
			c-1.782,1.489-3.944,2.219-6.097,2.219c-2.702,0-5.385-1.147-7.272-3.375c-3.366-4.011-2.844-9.993,1.157-13.359
			c41.766-35.119,56.149-54.376,60.862-64.341c4.949-10.458-1.005-29.051-11.169-34.892c-9.263-5.319-18.195,3.849-24.111,12.449
			c-8.372,12.184-23.836,34.683-52.328,54.433c-4.314,2.977-10.221,1.896-13.189-2.399c-2.987-4.305-1.915-10.212,2.389-13.198
			c25.638-17.759,39.822-38.4,47.436-49.493c21.286-30.957,43.084-21.798,49.256-18.242
			C233.404,229.329,242.572,258.209,233.29,277.845z"/>
	</g>
</g>
<g>
</g>
<g>
</g>
<g>
</g>
<g>
</g>
<g>
</g>
<g>
</g>
<g>
</g>
<g>
</g>
<g>
</g>
<g>
</g>
<g>
</g>
<g>
</g>
<g>
</g>
<g>
</g>
<g>
</g>
</svg>
