<?xml version="1.0" encoding="iso-8859-1"?>
<!-- Generator: Adobe Illustrator 18.0.0, SVG Export Plug-In . SVG Version: 6.00 Build 0)  -->
<!DOCTYPE svg PUBLIC "-//W3C//DTD SVG 1.1//EN" "http://www.w3.org/Graphics/SVG/1.1/DTD/svg11.dtd">
<svg version="1.1" id="Capa_1" xmlns="http://www.w3.org/2000/svg" xmlns:xlink="http://www.w3.org/1999/xlink" x="0px" y="0px"
	 viewBox="0 0 496.018 496.018" style="enable-background:new 0 0 496.018 496.018;" xml:space="preserve">
<g id="soup-bowl">
	<path style="fill:#000100;" d="M495.274,122.151c-0.952-8.288-7.935-14.515-16.273-14.515H17.029
		c-8.306,0-15.308,6.226-16.259,14.483C0.271,126.361,0,130.634,0,134.971c0,5.791,0.448,11.502,1.191,17.143h493.63
		c0.743-5.641,1.196-11.352,1.196-17.143C496.018,130.653,495.741,126.374,495.274,122.151z"/>
	<path style="fill:#000100;" d="M491.518,168.632H4.5c13.94,53.296,60.39,98.157,123.727,123.601v29.869
		c0,9.045,7.323,16.367,16.368,16.367h206.821c9.045,0,16.368-7.322,16.368-16.367v-29.863
		C431.114,266.797,477.575,221.934,491.518,168.632z"/>
	<path style="fill:#000100;" d="M466.309,355.355H29.705c-9.127,0-16.514,7.387-16.514,16.513c0,9.132,7.387,16.514,16.514,16.514
		h436.603c9.131,0,16.513-7.382,16.513-16.514C482.821,362.742,475.44,355.355,466.309,355.355z"/>
</g>
<g>
</g>
<g>
</g>
<g>
</g>
<g>
</g>
<g>
</g>
<g>
</g>
<g>
</g>
<g>
</g>
<g>
</g>
<g>
</g>
<g>
</g>
<g>
</g>
<g>
</g>
<g>
</g>
<g>
</g>
</svg>
