<?xml version="1.0" encoding="iso-8859-1"?>
<!-- Generator: Adobe Illustrator 17.1.0, SVG Export Plug-In . SVG Version: 6.00 Build 0)  -->
<!DOCTYPE svg PUBLIC "-//W3C//DTD SVG 1.1//EN" "http://www.w3.org/Graphics/SVG/1.1/DTD/svg11.dtd">
<svg version="1.1" id="Capa_1" xmlns="http://www.w3.org/2000/svg" xmlns:xlink="http://www.w3.org/1999/xlink" x="0px" y="0px"
	 viewBox="0 0 211.329 211.329" style="enable-background:new 0 0 211.329 211.329;" xml:space="preserve">
<path d="M211.276,114.964c-0.005-0.056-0.008-0.112-0.014-0.168c-0.077-0.708-0.251-1.382-0.512-2.017
	c-0.026-0.063-0.053-0.126-0.081-0.188c-0.162-0.365-0.349-0.712-0.565-1.044c-0.033-0.051-0.063-0.103-0.097-0.153
	c-0.119-0.174-0.244-0.341-0.377-0.504c-0.064-0.079-0.133-0.152-0.199-0.228c-0.212-0.24-0.436-0.465-0.676-0.676
	c-0.105-0.092-0.211-0.182-0.321-0.269c-0.137-0.107-0.272-0.214-0.417-0.312c-0.222-0.151-0.454-0.289-0.693-0.416
	c-0.129-0.068-0.262-0.129-0.395-0.19c-0.211-0.097-0.427-0.183-0.647-0.26c-0.075-0.026-0.143-0.064-0.219-0.088L159.607,91.44
	c1.492-2.756,2.487-5.816,2.879-9.06c4.091-0.612,7.512-1.66,10.191-3.159c9.058-5.07,16.202-17.379,16.987-18.766
	c1.871-3.307,0.975-7.49-2.088-9.739c-0.746-0.548-7.576-5.356-17.393-5.356c-4.089,0-8.118,0.838-11.978,2.489
	c-1.884,0.806-3.668,1.707-5.354,2.658c-0.013-2.079-0.22-4.113-0.699-5.997c-2.556-10.06-12.601-20.144-13.738-21.26
	c-2.71-2.662-6.981-2.879-9.947-0.5c-0.525,0.421-12.825,10.506-10.359,27.632c0.491,3.412,1.306,6.629,2.271,9.569
	c-4.157,3.597-7.15,8.503-8.321,14.076l-2.904-1.063c-4.973-1.82-10.512-1.742-15.433,0.218L4.724,108.648
	c-0.015,0.006-0.029,0.014-0.044,0.02c-0.125,0.051-0.247,0.109-0.368,0.166c-0.092,0.043-0.185,0.086-0.275,0.132
	c-0.104,0.054-0.205,0.113-0.306,0.172c-0.104,0.061-0.208,0.122-0.309,0.188c-0.085,0.055-0.168,0.113-0.251,0.171
	c-0.111,0.078-0.219,0.159-0.325,0.243c-0.071,0.056-0.141,0.114-0.211,0.172c-0.11,0.094-0.215,0.191-0.319,0.29
	c-0.062,0.059-0.123,0.117-0.183,0.178c-0.103,0.106-0.201,0.216-0.297,0.327c-0.055,0.063-0.111,0.124-0.163,0.189
	c-0.095,0.117-0.183,0.24-0.271,0.362c-0.046,0.065-0.096,0.127-0.14,0.193c-0.122,0.182-0.236,0.369-0.341,0.562
	c-0.049,0.09-0.091,0.184-0.137,0.276c-0.055,0.111-0.111,0.221-0.161,0.334c-0.045,0.103-0.083,0.208-0.123,0.313
	c-0.042,0.11-0.084,0.219-0.121,0.332c-0.034,0.104-0.064,0.208-0.093,0.314c-0.034,0.122-0.067,0.245-0.095,0.369
	c-0.022,0.098-0.043,0.197-0.061,0.296c-0.027,0.143-0.048,0.287-0.066,0.432c-0.011,0.085-0.023,0.17-0.03,0.256
	c-0.016,0.178-0.024,0.357-0.027,0.537C0.006,115.52,0,115.567,0,115.615v34.886v9.176v13.718c0,9.283,7.552,16.835,16.834,16.835
	h177.641c9.282,0,16.834-7.552,16.834-16.835v-13.718v-9.176v-34.48c0.007-0.135,0.021-0.269,0.021-0.406
	C211.329,115.393,211.295,115.181,211.276,114.964z M195.109,160.876H16.199c-0.661,0-1.199-0.538-1.199-1.199v-9.176
	c0-0.661,0.538-1.199,1.199-1.199h178.91c0.661,0,1.199,0.538,1.199,1.199v9.176C196.309,160.338,195.771,160.876,195.109,160.876z
	 M99.273,87.116c1.505-0.6,3.201-0.623,4.723-0.066l10.26,3.757c4.221,8.34,12.869,14.074,22.837,14.074
	c3.552,0,6.937-0.729,10.014-2.043l14.412,5.278H46.579L99.273,87.116z"/>
<g>
</g>
<g>
</g>
<g>
</g>
<g>
</g>
<g>
</g>
<g>
</g>
<g>
</g>
<g>
</g>
<g>
</g>
<g>
</g>
<g>
</g>
<g>
</g>
<g>
</g>
<g>
</g>
<g>
</g>
</svg>
