<?xml version="1.0" encoding="iso-8859-1"?>
<!-- Generator: Adobe Illustrator 16.0.0, SVG Export Plug-In . SVG Version: 6.00 Build 0)  -->
<!DOCTYPE svg PUBLIC "-//W3C//DTD SVG 1.1//EN" "http://www.w3.org/Graphics/SVG/1.1/DTD/svg11.dtd">
<svg version="1.1" id="Capa_1" xmlns="http://www.w3.org/2000/svg" xmlns:xlink="http://www.w3.org/1999/xlink" x="0px" y="0px"
	 width="480.799px" height="480.8px" viewBox="0 0 480.799 480.8" style="enable-background:new 0 0 480.799 480.8;"
	 xml:space="preserve">
<g>
	<g>
		<path d="M364.16,133.026c0,0,16.234-9.107,31.667-3.174c0,0,36.026-55.824,76.811-80.762c0,0-15.181-15.138-30.789-18.3
			C438.673,15.174,423.549,0,423.549,0c-24.938,40.777-80.766,76.808-80.766,76.808c5.936,15.44-3.166,31.67-3.166,31.67
			l0.017,0.016l-61.362,62.332l-17.279-17.28c-17.014-17.014-44.585-17.014-61.596,0c-2.287,2.276-4.232,4.763-5.897,7.37
			c-8.822,12.283-12.81,28.254-17.386,43.124c-6.598,21.432-38.337,30.092-73.372,34.628c-17.222,2.232-33.59,9.493-45.791,16.298
			c-9.724,4.256-18.636,10.207-26.345,17.91c-40.908,40.907-22.65,105.703,28.569,156.914
			c51.215,51.219,116.011,69.473,156.911,28.565c1.663-1.655,3.22-3.395,4.719-5.166l0.016,0.017c0,0,0.194-0.253,0.539-0.706
			c3.386-4.071,6.346-8.411,8.883-12.979c7.708-12.459,17.763-32.052,20.464-52.882c4.536-35.037,13.192-66.776,34.628-73.368
			c20.706-6.372,43.537-11.63,55.535-30.368c0.128-0.181,0.236-0.373,0.36-0.565c0.297-0.477,0.621-0.922,0.902-1.427l-0.021-0.068
			c9.842-16.698,7.634-38.531-6.692-52.875l-32.785-32.773l61.37-62.332L364.16,133.026z"/>
	</g>
</g>
<g>
</g>
<g>
</g>
<g>
</g>
<g>
</g>
<g>
</g>
<g>
</g>
<g>
</g>
<g>
</g>
<g>
</g>
<g>
</g>
<g>
</g>
<g>
</g>
<g>
</g>
<g>
</g>
<g>
</g>
</svg>
