<?xml version="1.0" encoding="iso-8859-1"?>
<!-- Generator: Adobe Illustrator 19.0.0, SVG Export Plug-In . SVG Version: 6.00 Build 0)  -->
<svg version="1.1" id="Layer_1" xmlns="http://www.w3.org/2000/svg" xmlns:xlink="http://www.w3.org/1999/xlink" x="0px" y="0px"
	 viewBox="0 0 512.724 512.724" style="enable-background:new 0 0 512.724 512.724;" xml:space="preserve">
<g>
	<g>
		<path d="M482.472,192.182h-17.608c-11.984-40-36.136-75.168-64.136-102.436V4.534c0-2.204-2.816-3.992-5.02-3.992
			c-31.548,0-59.176,19.364-70.588,46.828c-22.392-7.5-46.068-11.296-69.92-11.296c-78.016,0-146.732,40.968-185.628,102.492
			c-1.144,0.808-2.248,1.804-3.072,3.032c-4.34,6.416-11.576,10.248-19.3,10.248c-12.82,0-23.252-10.42-23.252-23.232
			c0-9.964,6.328-18.808,15.752-22.012c6.264-2.12,9.612-8.916,7.488-15.172c-2.124-6.256-8.92-9.608-15.184-7.488
			C12.864,90.438,0,108.386,0,128.614c0,26.004,21.16,47.164,47.164,47.164c1.192,0,2.36-0.128,3.536-0.22
			c-9.724,24.772-14.412,51.696-14.412,79.872c0,68.708,32.44,134.148,88.44,175.464v51.836c0,15.4,11.112,29.452,26.508,29.452
			h19.944c15.392,0,29.548-14.056,29.548-29.452v-15.172c36,9.608,72,9.608,112,0v15.172c0,15.4,10.584,29.452,25.976,29.452h19.94
			c15.396,0,30.084-14.056,30.084-29.452v-51.836c36-27.944,62.696-66.712,76.132-110.712h17.608
			c15.392,0,30.256-13.624,30.256-29.024v-71.452C512.728,204.31,497.86,192.182,482.472,192.182z M347.144,216.098
			c-15.504,0-28.084-12.576-28.084-28.084c0-15.512,12.584-28.084,28.084-28.084c15.512,0,28.084,12.576,28.084,28.084
			C375.224,203.526,362.652,216.098,347.144,216.098z"/>
	</g>
</g>
<g>
</g>
<g>
</g>
<g>
</g>
<g>
</g>
<g>
</g>
<g>
</g>
<g>
</g>
<g>
</g>
<g>
</g>
<g>
</g>
<g>
</g>
<g>
</g>
<g>
</g>
<g>
</g>
<g>
</g>
</svg>
