<?xml version="1.0" encoding="iso-8859-1"?>
<!-- Generator: Adobe Illustrator 19.0.0, SVG Export Plug-In . SVG Version: 6.00 Build 0)  -->
<svg version="1.1" id="Layer_1" xmlns="http://www.w3.org/2000/svg" xmlns:xlink="http://www.w3.org/1999/xlink" x="0px" y="0px"
	 viewBox="0 0 511.999 511.999" style="enable-background:new 0 0 511.999 511.999;" xml:space="preserve">
<g>
	<g>
		<path d="M502.216,57.08L454.92,9.772C441.888-3.25,420.678-3.266,407.623,9.778c0,0-97.755,97.755-98.241,98.241
			c-24.409,24.399-46.172,28.652-92.155,43.976c-22.364,7.458-42.986,20.202-59.644,36.866L14.711,331.734
			c-19.605,19.592-19.625,51.343,0,70.957l94.593,94.593c19.591,19.614,51.349,19.624,70.957,0.006
			c56.029-56.026,45.395-45.393,142.882-142.872c16.669-16.664,29.408-37.285,36.856-59.644
			c15.368-46.081,19.639-67.804,43.976-92.149l98.241-98.241C515.26,91.345,515.26,70.119,502.216,57.08z M215.74,414.515
			L97.483,296.262l70.954-70.958l118.26,118.259L215.74,414.515z M454.919,104.384l-47.304-47.302l23.656-23.656l47.297,47.308
			L454.919,104.384z"/>
	</g>
</g>
<g>
</g>
<g>
</g>
<g>
</g>
<g>
</g>
<g>
</g>
<g>
</g>
<g>
</g>
<g>
</g>
<g>
</g>
<g>
</g>
<g>
</g>
<g>
</g>
<g>
</g>
<g>
</g>
<g>
</g>
</svg>
