<?xml version="1.0" encoding="iso-8859-1"?>
<!-- Generator: Adobe Illustrator 16.0.0, SVG Export Plug-In . SVG Version: 6.00 Build 0)  -->
<!DOCTYPE svg PUBLIC "-//W3C//DTD SVG 1.1//EN" "http://www.w3.org/Graphics/SVG/1.1/DTD/svg11.dtd">
<svg version="1.1" id="Capa_1" xmlns="http://www.w3.org/2000/svg" xmlns:xlink="http://www.w3.org/1999/xlink" x="0px" y="0px"
	 width="254.797px" height="254.797px" viewBox="0 0 254.797 254.797" style="enable-background:new 0 0 254.797 254.797;"
	 xml:space="preserve">
<g>
	<g>
		<g id="Layer_5_48_">
			<g>
				<path d="M127.398,0.959C57.039,0.959,0,28.876,0,63.315c0,5.617,1.527,11.06,4.373,16.236
					c2.547,15.482,10.645,65.834,11.412,84.661c0.928,22.703,14.584,42.694,36.842,54.315c-1.375,2.162-2.121,4.418-2.121,6.741
					c0,15.778,33.582,28.568,75.006,28.568c41.423,0,75.005-12.79,75.005-28.568c0-1.805-0.459-3.566-1.299-5.278
					c23.967-11.356,38.76-32.099,39.791-55.778c0.847-19.396,9.738-72.219,12.094-85.951c2.406-4.789,3.693-9.794,3.693-14.946
					C254.797,28.876,197.758,0.959,127.398,0.959z M125.511,108.225c-55.943,0-101.295-19.147-101.295-42.766
					c0-23.62,45.352-42.767,101.295-42.767c55.942,0,101.296,19.146,101.296,42.767C226.807,89.078,181.455,108.225,125.511,108.225
					z"/>
				<path d="M143.77,36.771c5.378,0.923,6.998,3.691,3.948,7.499c0.125-0.005-7.019,8.391-12.355,12.625
					c-5.017,3.972-13.279,8.769-13.195,8.767c-4.006,2.442-7.473,0.469-7.547-4.419c-0.086-5.763,0.436-11.558,1.285-17.329
					c0.781-4.9,2.557-8.31,10.432-8.29C132.105,35.638,136.949,35.6,143.77,36.771z"/>
				<path d="M149.371,93.744c-6.959,1.031-10.063-1.709-7.857-7.603c-0.149,0.056,5.228-13.108,10.066-20.447
					c4.551-6.887,12.748-16.091,12.648-16.055c3.924-4.605,8.971-3.583,11.023,2.381c2.429,7.026,4.116,14.341,5.399,21.757
					c1.018,6.319,0.207,11.214-9.45,14.358C164.125,90.439,158.203,92.435,149.371,93.744z"/>
				<path d="M103.177,85.001c-0.352,4.896-2.688,6.592-6.365,4.197c0.014,0.112-8.135-5.542-12.398-9.948
					c-3.998-4.142-9.023-11.116-9.016-11.042c-2.539-3.37-1.08-6.65,3.291-7.146c5.152-0.587,10.389-0.632,15.631-0.381
					c4.457,0.266,7.666,1.556,8.344,8.608C103.162,74.457,103.623,78.792,103.177,85.001z"/>
			</g>
		</g>
	</g>
</g>
<g>
</g>
<g>
</g>
<g>
</g>
<g>
</g>
<g>
</g>
<g>
</g>
<g>
</g>
<g>
</g>
<g>
</g>
<g>
</g>
<g>
</g>
<g>
</g>
<g>
</g>
<g>
</g>
<g>
</g>
</svg>
