<?xml version="1.0" encoding="iso-8859-1"?>
<!-- Generator: Adobe Illustrator 19.0.0, SVG Export Plug-In . SVG Version: 6.00 Build 0)  -->
<svg version="1.1" id="Layer_1" xmlns="http://www.w3.org/2000/svg" xmlns:xlink="http://www.w3.org/1999/xlink" x="0px" y="0px"
	 viewBox="0 0 512 512" style="enable-background:new 0 0 512 512;" xml:space="preserve">
<g>
	<g>
		<path d="M368.646,45.527V21.202C368.646,9.493,359.153,0,347.443,0s-21.202,9.493-21.202,21.202v24.323
			c-30.428,9.135-52.667,37.39-52.667,70.753v0.745h21.202h21.203v0.001h62.929h21.202h21.202v-0.745
			C421.313,82.917,399.074,54.663,368.646,45.527z"/>
	</g>
</g>
<g>
	<g>
		<path d="M469.126,469.595h-6.744V321.746c0-11.709-9.493-21.202-21.202-21.202h-19.868v-163.73h-21.203h-21.202h-62.929h-21.203
			h-21.202v163.73H70.819c-11.709,0-21.202,9.493-21.202,21.202v147.849h-6.744c-11.709,0-21.202,9.493-21.202,21.203
			S31.163,512,42.873,512h27.946h370.362h27.946c11.709,0,21.202-9.493,21.202-21.202S480.835,469.595,469.126,469.595z
			 M178.405,426.163c0,11.709-9.493,21.202-21.203,21.202S136,437.872,136,426.163v-27.856c0-11.709,9.493-21.202,21.202-21.202
			s21.203,9.492,21.203,21.202V426.163z M244.269,426.163c0,11.709-9.493,21.202-21.202,21.202s-21.203-9.493-21.203-21.202v-27.856
			c0-11.709,9.493-21.202,21.203-21.202s21.202,9.492,21.202,21.202V426.163z M310.136,426.163c0,10.716-7.957,19.55-18.281,20.978
			c-0.958,0.133-1.928,0.225-2.922,0.225c-11.709,0-21.202-9.493-21.202-21.202v-27.856c0-5.66,2.232-10.788,5.845-14.59
			c3.863-4.065,9.308-6.612,15.358-6.612c2.03,0,3.986,0.302,5.845,0.835c8.863,2.539,15.358,10.686,15.358,20.367V426.163z
			 M326.241,204.077v-11.496c0-11.709,9.493-21.202,21.202-21.202s21.203,9.493,21.203,21.202v11.496
			c0,11.709-9.493,21.202-21.202,21.202S326.241,215.786,326.241,204.077z M375.999,404.959v21.203
			c0,11.709-9.493,21.202-21.202,21.202s-21.202-9.492-21.202-21.202v-21.203v-6.653c0-11.709,9.493-21.202,21.202-21.202
			s21.202,9.493,21.202,21.202V404.959z"/>
	</g>
</g>
<g>
</g>
<g>
</g>
<g>
</g>
<g>
</g>
<g>
</g>
<g>
</g>
<g>
</g>
<g>
</g>
<g>
</g>
<g>
</g>
<g>
</g>
<g>
</g>
<g>
</g>
<g>
</g>
<g>
</g>
</svg>
