<?xml version="1.0" encoding="iso-8859-1"?>
<!-- Generator: Adobe Illustrator 19.0.0, SVG Export Plug-In . SVG Version: 6.00 Build 0)  -->
<svg version="1.1" id="Layer_1" xmlns="http://www.w3.org/2000/svg" xmlns:xlink="http://www.w3.org/1999/xlink" x="0px" y="0px"
	 viewBox="0 0 512.4 512.4" style="enable-background:new 0 0 512.4 512.4;" xml:space="preserve">
<g>
	<g>
		<path d="M332.2,158v-1.6c0-15.6-10.8-28.4-26.4-28.4h-28L270.2,3.6c0-2-2-3.6-4-3.6h-16c-2,0-4,1.6-4,3.6L238.6,128h-28
			c-15.6,0-30.4,12.8-30.4,28.4v1.6c-12,4.8-24,18.4-24,34v284.8c0,20,18.4,35.6,38.4,35.6h127.2c20,0,34.4-15.6,34.4-35.6V192
			C356.2,176.4,344.2,163.2,332.2,158z M266.2,436h-94V232h42h51.6c15.6,0,26,12.8,26,28.4V408h0.4C292.2,423.6,281.4,436,266.2,436
			z"/>
	</g>
</g>
<g>
</g>
<g>
</g>
<g>
</g>
<g>
</g>
<g>
</g>
<g>
</g>
<g>
</g>
<g>
</g>
<g>
</g>
<g>
</g>
<g>
</g>
<g>
</g>
<g>
</g>
<g>
</g>
<g>
</g>
</svg>
